<svg id="my-svg" width="1430.24560546875" xmlns="http://www.w3.org/2000/svg" xmlns:xlink="http://www.w3.org/1999/xlink" class="flowchart" height="340" viewBox="0 0 1430.24560546875 340" role="graphics-document document" aria-roledescription="flowchart-v2" style="background-color: white;"><style>#my-svg{font-family:"trebuchet ms",verdana,arial,sans-serif;font-size:16px;fill:#000000;}@keyframes edge-animation-frame{from{stroke-dashoffset:0;}}@keyframes dash{to{stroke-dashoffset:0;}}#my-svg .edge-animation-slow{stroke-dasharray:9,5!important;stroke-dashoffset:900;animation:dash 50s linear infinite;stroke-linecap:round;}#my-svg .edge-animation-fast{stroke-dasharray:9,5!important;stroke-dashoffset:900;animation:dash 20s linear infinite;stroke-linecap:round;}#my-svg .error-icon{fill:#552222;}#my-svg .error-text{fill:#552222;stroke:#552222;}#my-svg .edge-thickness-normal{stroke-width:1px;}#my-svg .edge-thickness-thick{stroke-width:3.5px;}#my-svg .edge-pattern-solid{stroke-dasharray:0;}#my-svg .edge-thickness-invisible{stroke-width:0;fill:none;}#my-svg .edge-pattern-dashed{stroke-dasharray:3;}#my-svg .edge-pattern-dotted{stroke-dasharray:2;}#my-svg .marker{fill:#666;stroke:#666;}#my-svg .marker.cross{stroke:#666;}#my-svg svg{font-family:"trebuchet ms",verdana,arial,sans-serif;font-size:16px;}#my-svg p{margin:0;}#my-svg .label{font-family:"trebuchet ms",verdana,arial,sans-serif;color:#000000;}#my-svg .cluster-label text{fill:#333;}#my-svg .cluster-label span{color:#333;}#my-svg .cluster-label span p{background-color:transparent;}#my-svg .label text,#my-svg span{fill:#000000;color:#000000;}#my-svg .node rect,#my-svg .node circle,#my-svg .node ellipse,#my-svg .node polygon,#my-svg .node path{fill:#eee;stroke:#999;stroke-width:1px;}#my-svg .rough-node .label text,#my-svg .node .label text,#my-svg .image-shape .label,#my-svg .icon-shape .label{text-anchor:middle;}#my-svg .node .katex path{fill:#000;stroke:#000;stroke-width:1px;}#my-svg .rough-node .label,#my-svg .node .label,#my-svg .image-shape .label,#my-svg .icon-shape .label{text-align:center;}#my-svg .node.clickable{cursor:pointer;}#my-svg .root .anchor path{fill:#666!important;stroke-width:0;stroke:#666;}#my-svg .arrowheadPath{fill:#333333;}#my-svg .edgePath .path{stroke:#666;stroke-width:2.0px;}#my-svg .flowchart-link{stroke:#666;fill:none;}#my-svg .edgeLabel{background-color:white;text-align:center;}#my-svg .edgeLabel p{background-color:white;}#my-svg .edgeLabel rect{opacity:0.5;background-color:white;fill:white;}#my-svg .labelBkg{background-color:rgba(255, 255, 255, 0.5);}#my-svg .cluster rect{fill:hsl(0, 0%, 98.9215686275%);stroke:#707070;stroke-width:1px;}#my-svg .cluster text{fill:#333;}#my-svg .cluster span{color:#333;}#my-svg div.mermaidTooltip{position:absolute;text-align:center;max-width:200px;padding:2px;font-family:"trebuchet ms",verdana,arial,sans-serif;font-size:12px;background:hsl(-160, 0%, 93.3333333333%);border:1px solid #707070;border-radius:2px;pointer-events:none;z-index:100;}#my-svg .flowchartTitleText{text-anchor:middle;font-size:18px;fill:#000000;}#my-svg rect.text{fill:none;stroke-width:0;}#my-svg .icon-shape,#my-svg .image-shape{background-color:white;text-align:center;}#my-svg .icon-shape p,#my-svg .image-shape p{background-color:white;padding:2px;}#my-svg .icon-shape rect,#my-svg .image-shape rect{opacity:0.5;background-color:white;fill:white;}#my-svg .label-icon{display:inline-block;height:1em;overflow:visible;vertical-align:-0.125em;}#my-svg .node .label-icon path{fill:currentColor;stroke:revert;stroke-width:revert;}#my-svg :root{--mermaidfont-family:"trebuchet ms",verdana,arial,sans-serif;}#my-svg .external&gt;*{fill:#f8f9fa!important;stroke:#ced4da!important;stroke-width:2px!important;}#my-svg .external span{fill:#f8f9fa!important;stroke:#ced4da!important;stroke-width:2px!important;}#my-svg .ingress&gt;*{fill:#d1e7dd!important;stroke:#0f5132!important;stroke-width:2px!important;}#my-svg .ingress span{fill:#d1e7dd!important;stroke:#0f5132!important;stroke-width:2px!important;}#my-svg .compute&gt;*{fill:#cfe2ff!important;stroke:#084298!important;stroke-width:2px!important;}#my-svg .compute span{fill:#cfe2ff!important;stroke:#084298!important;stroke-width:2px!important;}#my-svg .storage&gt;*{fill:#fff3cd!important;stroke:#856404!important;stroke-width:2px!important;}#my-svg .storage span{fill:#fff3cd!important;stroke:#856404!important;stroke-width:2px!important;}</style><g><marker id="my-svg_flowchart-v2-pointEnd" class="marker flowchart-v2" viewBox="0 0 10 10" refX="5" refY="5" markerUnits="userSpaceOnUse" markerWidth="8" markerHeight="8" orient="auto"><path d="M 0 0 L 10 5 L 0 10 z" class="arrowMarkerPath" style="stroke-width: 1; stroke-dasharray: 1, 0;"/></marker><marker id="my-svg_flowchart-v2-pointStart" class="marker flowchart-v2" viewBox="0 0 10 10" refX="4.5" refY="5" markerUnits="userSpaceOnUse" markerWidth="8" markerHeight="8" orient="auto"><path d="M 0 5 L 10 10 L 10 0 z" class="arrowMarkerPath" style="stroke-width: 1; stroke-dasharray: 1, 0;"/></marker><marker id="my-svg_flowchart-v2-circleEnd" class="marker flowchart-v2" viewBox="0 0 10 10" refX="11" refY="5" markerUnits="userSpaceOnUse" markerWidth="11" markerHeight="11" orient="auto"><circle cx="5" cy="5" r="5" class="arrowMarkerPath" style="stroke-width: 1; stroke-dasharray: 1, 0;"/></marker><marker id="my-svg_flowchart-v2-circleStart" class="marker flowchart-v2" viewBox="0 0 10 10" refX="-1" refY="5" markerUnits="userSpaceOnUse" markerWidth="11" markerHeight="11" orient="auto"><circle cx="5" cy="5" r="5" class="arrowMarkerPath" style="stroke-width: 1; stroke-dasharray: 1, 0;"/></marker><marker id="my-svg_flowchart-v2-crossEnd" class="marker cross flowchart-v2" viewBox="0 0 11 11" refX="12" refY="5.2" markerUnits="userSpaceOnUse" markerWidth="11" markerHeight="11" orient="auto"><path d="M 1,1 l 9,9 M 10,1 l -9,9" class="arrowMarkerPath" style="stroke-width: 2; stroke-dasharray: 1, 0;"/></marker><marker id="my-svg_flowchart-v2-crossStart" class="marker cross flowchart-v2" viewBox="0 0 11 11" refX="-1" refY="5.2" markerUnits="userSpaceOnUse" markerWidth="11" markerHeight="11" orient="auto"><path d="M 1,1 l 9,9 M 10,1 l -9,9" class="arrowMarkerPath" style="stroke-width: 2; stroke-dasharray: 1, 0;"/></marker><g class="root"><g class="clusters"><g class="cluster" id="Compute" data-look="classic"><rect style="" x="759.4018402099609" y="8" width="310" height="324"/><g class="cluster-label" transform="translate(833.8549652099609, 8)"><foreignObject width="161.09375" height="24"><div xmlns="http://www.w3.org/1999/xhtml" style="display: table-cell; white-space: nowrap; line-height: 1.5; max-width: 200px; text-align: center;"><span class="nodeLabel"><p>Compute Workloads</p></span></div></foreignObject></g></g></g><g class="edgePaths"><path d="M204.355,182.5L219.582,182.417C234.808,182.333,265.261,182.167,295.131,182.083C325.001,182,354.287,182,368.93,182L383.574,182" id="L_Clients_Edge_0" class="edge-thickness-normal edge-pattern-solid edge-thickness-normal edge-pattern-solid flowchart-link" style=";" data-edge="true" data-et="edge" data-id="L_Clients_Edge_0" data-points="W3sieCI6MjA0LjM1NDk2MjQzMTgyNTY0LCJ5IjoxODIuNX0seyJ4IjoyOTUuNzE0MzQwMjA5OTYwOTQsInkiOjE4Mn0seyJ4IjozODcuNTczNzE1MjA5OTYwOTQsInkiOjE4Mn1d" marker-end="url(#my-svg_flowchart-v2-pointEnd)"/><path d="M625.24,141.666L639.781,135.722C654.323,129.777,683.405,117.889,705.765,111.944C728.126,106,743.764,106,755.083,106C766.402,106,773.402,106,776.902,106L780.402,106" id="L_Edge_Apps_0" class="edge-thickness-normal edge-pattern-solid edge-thickness-normal edge-pattern-solid flowchart-link" style=";" data-edge="true" data-et="edge" data-id="L_Edge_Apps_0" data-points="W3sieCI6NjI1LjIzOTg3NDc5MjM2MjEsInkiOjE0MS42NjYxNTk1ODI0MDEyfSx7IngiOjcxMi40ODc3Nzc3MDk5NjA5LCJ5IjoxMDZ9LHsieCI6NzU5LjQwMTg0MDIwOTk2MDksInkiOjEwNn0seyJ4Ijo3ODQuNDAxODQwMjA5OTYwOSwieSI6MTA2fV0=" marker-end="url(#my-svg_flowchart-v2-pointEnd)"/><path d="M625.24,222.334L639.781,228.278C654.323,234.223,683.405,246.111,705.765,252.056C728.126,258,743.764,258,755.083,258C766.402,258,773.402,258,776.902,258L780.402,258" id="L_Edge_Players_0" class="edge-thickness-normal edge-pattern-solid edge-thickness-normal edge-pattern-solid flowchart-link" style=";" data-edge="true" data-et="edge" data-id="L_Edge_Players_0" data-points="W3sieCI6NjI1LjIzOTg3NDc5MjM2MjEsInkiOjIyMi4zMzM4NDA0MTc1OTg4fSx7IngiOjcxMi40ODc3Nzc3MDk5NjA5LCJ5IjoyNTh9LHsieCI6NzU5LjQwMTg0MDIwOTk2MDksInkiOjI1OH0seyJ4Ijo3ODQuNDAxODQwMjA5OTYwOSwieSI6MjU4fV0=" marker-end="url(#my-svg_flowchart-v2-pointEnd)"/><path d="M1044.402,106L1048.569,106C1052.735,106,1061.069,106,1076.722,106C1092.376,106,1115.35,106,1137.711,110.685C1160.073,115.369,1181.823,124.739,1192.697,129.423L1203.572,134.108" id="L_Apps_Disks_0" class="edge-thickness-normal edge-pattern-dotted edge-thickness-normal edge-pattern-solid flowchart-link" style=";" data-edge="true" data-et="edge" data-id="L_Apps_Disks_0" data-points="W3sieCI6MTA0NC40MDE4NDAyMDk5NjEsInkiOjEwNn0seyJ4IjoxMDY5LjQwMTg0MDIwOTk2MSwieSI6MTA2fSx7IngiOjExMzguMzIzNzE1MjA5OTYxLCJ5IjoxMDZ9LHsieCI6MTIwNy4yNDU1OTAyMDk5NjEsInkiOjEzNS42OTA1NDk5OTU1NzE3fV0=" marker-end="url(#my-svg_flowchart-v2-pointEnd)"/><path d="M1044.402,258L1048.569,258C1052.735,258,1061.069,258,1076.722,258C1092.376,258,1115.35,258,1137.711,253.315C1160.073,248.631,1181.823,239.261,1192.697,234.577L1203.572,229.892" id="L_Players_Disks_0" class="edge-thickness-thick edge-pattern-solid edge-thickness-normal edge-pattern-solid flowchart-link" style=";" data-edge="true" data-et="edge" data-id="L_Players_Disks_0" data-points="W3sieCI6MTA0NC40MDE4NDAyMDk5NjEsInkiOjI1OH0seyJ4IjoxMDY5LjQwMTg0MDIwOTk2MSwieSI6MjU4fSx7IngiOjExMzguMzIzNzE1MjA5OTYxLCJ5IjoyNTh9LHsieCI6MTIwNy4yNDU1OTAyMDk5NjEsInkiOjIyOC4zMDk0NTAwMDQ0MjgzfV0=" marker-end="url(#my-svg_flowchart-v2-pointEnd)"/></g><g class="edgeLabels"><g class="edgeLabel" transform="translate(295.71434020996094, 182)"><g class="label" data-id="L_Clients_Edge_0" transform="translate(-66.859375, -12)"><foreignObject width="133.71875" height="24"><div xmlns="http://www.w3.org/1999/xhtml" class="labelBkg" style="display: table-cell; white-space: nowrap; line-height: 1.5; max-width: 200px; text-align: center;"><span class="edgeLabel"><p>HTTPS / Tailscale</p></span></div></foreignObject></g></g><g class="edgeLabel" transform="translate(712.4877777099609, 106)"><g class="label" data-id="L_Edge_Apps_0" transform="translate(-21.9140625, -12)"><foreignObject width="43.828125" height="24"><div xmlns="http://www.w3.org/1999/xhtml" class="labelBkg" style="display: table-cell; white-space: nowrap; line-height: 1.5; max-width: 200px; text-align: center;"><span class="edgeLabel"><p>Proxy</p></span></div></foreignObject></g></g><g class="edgeLabel" transform="translate(712.4877777099609, 258)"><g class="label" data-id="L_Edge_Players_0" transform="translate(-21.9140625, -12)"><foreignObject width="43.828125" height="24"><div xmlns="http://www.w3.org/1999/xhtml" class="labelBkg" style="display: table-cell; white-space: nowrap; line-height: 1.5; max-width: 200px; text-align: center;"><span class="edgeLabel"><p>Proxy</p></span></div></foreignObject></g></g><g class="edgeLabel" transform="translate(1138.323715209961, 106)"><g class="label" data-id="L_Apps_Disks_0" transform="translate(-43.921875, -12)"><foreignObject width="87.84375" height="24"><div xmlns="http://www.w3.org/1999/xhtml" class="labelBkg" style="display: table-cell; white-space: nowrap; line-height: 1.5; max-width: 200px; text-align: center;"><span class="edgeLabel"><p>Read/Write</p></span></div></foreignObject></g></g><g class="edgeLabel" transform="translate(1138.323715209961, 258)"><g class="label" data-id="L_Players_Disks_0" transform="translate(-28.9453125, -12)"><foreignObject width="57.890625" height="24"><div xmlns="http://www.w3.org/1999/xhtml" class="labelBkg" style="display: table-cell; white-space: nowrap; line-height: 1.5; max-width: 200px; text-align: center;"><span class="edgeLabel"><p>Stream</p></span></div></foreignObject></g></g></g><g class="nodes"><g class="node default external" id="flowchart-Clients-0" transform="translate(105.92748260498047, 182)"><g class="basic label-container outer-path"><path d="M-78.4375 -19.5 C-21.286625767561887 -19.5, 35.864248464876226 -19.5, 78.4375 -19.5 C78.4375 -19.5, 78.4375 -19.5, 78.4375 -19.5 C78.7980200230609 -19.488438824570093, 79.1585400461218 -19.476877649140185, 79.6868692896239 -19.45993515863156 C80.02699123274951 -19.427124003834713, 80.36711317587512 -19.39431284903787, 80.93110465284786 -19.3399052695533 C81.41327190915312 -19.261952206816783, 81.89543916545838 -19.183999144080268, 82.16509325967675 -19.140403561325776 C82.59986795847863 -19.041169073494302, 83.03464265728051 -18.941934585662832, 83.38376438623538 -18.862249829261074 C83.67262527993935 -18.776517432271508, 83.96148617364334 -18.69078503528194, 84.5821102514606 -18.50658706670804 C84.92600408366901 -18.380030957535606, 85.26989791587742 -18.253474848363176, 85.7552065951478 -18.074876768247425 C86.10208158930153 -17.921325498016675, 86.44895658345526 -17.767774227785925, 86.89823291279238 -17.568892924097174 C87.17857102294474 -17.422640711595818, 87.4589091330971 -17.276388499094463, 88.00649226407678 -16.990714730406097 C88.24911231821503 -16.843637027793793, 88.49173237235327 -16.69655932518149, 89.0754305736057 -16.342718045390892 C89.29682893765111 -16.18828013081352, 89.51822730169653 -16.03384221623615, 90.10065534457871 -15.627565626425154 C90.4308134596689 -15.364273315517156, 90.76097157475908 -15.100981004609157, 91.07795370850187 -14.848196188198123 C91.37717716606791 -14.576449361055497, 91.67640062363394 -14.30470253391287, 92.00330973676799 -14.007812326905688 C92.29473692146189 -13.706889832092392, 92.58616410615579 -13.405967337279096, 92.87292094296865 -13.10986736009568 C93.06341366999457 -12.886103763587794, 93.2539063970205 -12.662340167079908, 93.68321390812658 -12.158051136245305 C93.89777910220016 -11.870553323478003, 94.11234429627375 -11.5830555107107, 94.43085896464063 -11.156274872382312 C94.60538386790647 -10.888157754467533, 94.7799087711723 -10.620040636552755, 95.11278387860425 -10.108655082055241 C95.29735608834226 -9.780928433702506, 95.48192829808026 -9.453201785349771, 95.7261864742735 -9.019496659696287 C95.91392609131282 -8.629651327929869, 96.10166570835212 -8.23980599616345, 96.26854614880834 -7.893275190886684 C96.44267705973097 -7.463168474315666, 96.6168079706536 -7.033061757744649, 96.73763422997033 -6.734618561215508 C96.83809727277672 -6.432039882894797, 96.9385603155831 -6.129461204574087, 97.13152313421489 -5.548287939305138 C97.20868301187899 -5.254043884469397, 97.28584288954309 -4.9597998296336545, 97.44859428754556 -4.339158212148133 C97.52948648405476 -3.923793879645201, 97.61037868056395 -3.508429547142269, 97.68754477658177 -3.1121979531509023 C97.73427860971009 -2.7497395720468645, 97.7810124428384 -2.3872811909428266, 97.84739270250937 -1.872449005199798 C97.87299151342809 -1.473726862152346, 97.89859032434683 -1.0750047191048944, 97.92748121591342 -0.6250057626472757 C97.92748121591342 -0.17962326722170202, 97.92748121591342 0.26575922820387166, 97.92748121591342 0.625005762647271 C97.90305246858541 1.0055032208108372, 97.87862372125741 1.3860006789744035, 97.84739270250937 1.8724490051997846 C97.81036839888878 2.1596021928053033, 97.7733440952682 2.446755380410822, 97.68754477658177 3.1121979531508885 C97.61097795964999 3.5053523756931138, 97.53441114271821 3.8985067982353385, 97.44859428754556 4.339158212148129 C97.37604282931143 4.615828366395755, 97.30349137107731 4.8924985206433815, 97.13152313421489 5.548287939305125 C97.04388543903049 5.812238714030032, 96.95624774384609 6.07618948875494, 96.73763422997033 6.734618561215495 C96.61248742543192 7.043733587974204, 96.48734062089353 7.352848614732914, 96.26854614880834 7.893275190886679 C96.06467739286131 8.316613024703257, 95.8608086369143 8.739950858519835, 95.7261864742735 9.019496659696284 C95.50613623767069 9.410218137287272, 95.28608600106787 9.80093961487826, 95.11278387860425 10.108655082055236 C94.91136937499166 10.418081846971333, 94.70995487137908 10.727508611887428, 94.43085896464065 11.156274872382301 C94.16066989607953 11.518303609523693, 93.8904808275184 11.880332346665083, 93.68321390812659 12.158051136245302 C93.45398295296141 12.427318859793179, 93.22475199779623 12.696586583341055, 92.87292094296866 13.10986736009567 C92.61495655359879 13.376236771390312, 92.35699216422891 13.642606182684954, 92.00330973676799 14.007812326905684 C91.73177199959076 14.254415715315218, 91.46023426241354 14.501019103724753, 91.0779537085019 14.848196188198111 C90.85198508813109 15.028400149666298, 90.62601646776028 15.208604111134484, 90.10065534457871 15.627565626425152 C89.86760268353189 15.79013307408432, 89.63455002248507 15.952700521743486, 89.0754305736057 16.34271804539089 C88.66623763544008 16.590773209191507, 88.25704469727447 16.838828372992122, 88.00649226407678 16.990714730406093 C87.695240969922 17.153094331200677, 87.3839896757672 17.315473931995264, 86.89823291279238 17.56889292409717 C86.51481357556277 17.738621290958193, 86.13139423833314 17.908349657819215, 85.7552065951478 18.07487676824742 C85.35463230202411 18.222291810985112, 84.95405800890042 18.369706853722807, 84.58211025146062 18.506587066708033 C84.32467877729485 18.582991376955054, 84.06724730312908 18.65939568720207, 83.38376438623541 18.86224982926107 C83.12157323492603 18.922093248590276, 82.85938208361665 18.98193666791948, 82.16509325967677 19.140403561325773 C81.83675258802079 19.193487134799174, 81.5084119163648 19.246570708272575, 80.93110465284788 19.3399052695533 C80.47617176450052 19.383792098155322, 80.02123887615315 19.427678926757345, 79.6868692896239 19.45993515863156 C79.19093581861584 19.475838779770847, 78.6950023476078 19.49174240091013, 78.4375 19.5 C78.4375 19.5, 78.4375 19.5, 78.4375 19.5 C16.254690203550588 19.5, -45.928119592898824 19.5, -78.4375 19.5 C-78.92045037613039 19.48451272144338, -79.40340075226078 19.469025442886757, -79.6868692896239 19.45993515863156 C-80.09917193765305 19.420160818042667, -80.51147458568221 19.380386477453776, -80.93110465284786 19.3399052695533 C-81.28009754858464 19.283482804650905, -81.62909044432142 19.22706033974851, -82.16509325967675 19.140403561325773 C-82.64939099670804 19.029865763186464, -83.13368873373933 18.919327965047156, -83.38376438623538 18.862249829261074 C-83.68677510223499 18.772317839288096, -83.98978581823461 18.682385849315118, -84.58211025146059 18.506587066708043 C-85.00345888645545 18.35152687412585, -85.42480752145032 18.196466681543654, -85.7552065951478 18.074876768247425 C-86.12659252360288 17.910475234492502, -86.49797845205795 17.746073700737583, -86.89823291279238 17.568892924097174 C-87.27601260937155 17.371805498371263, -87.65379230595073 17.174718072645355, -88.00649226407678 16.990714730406097 C-88.34772457277741 16.78385769956815, -88.68895688147802 16.5770006687302, -89.07543057360569 16.3427180453909 C-89.32567291305034 16.16815982221059, -89.575915252495 15.993601599030285, -90.10065534457871 15.627565626425156 C-90.37510372615218 15.408700345498476, -90.64955210772564 15.189835064571794, -91.07795370850187 14.848196188198125 C-91.42092978068818 14.53671439408811, -91.7639058528745 14.225232599978094, -92.00330973676797 14.007812326905697 C-92.26253904043857 13.740136787744166, -92.52176834410916 13.472461248582636, -92.87292094296865 13.109867360095677 C-93.18106702443086 12.747901438801408, -93.48921310589307 12.38593551750714, -93.68321390812658 12.158051136245307 C-93.91034486590809 11.853716344874016, -94.1374758236896 11.549381553502725, -94.43085896464063 11.156274872382316 C-94.62583320388 10.856742082996615, -94.82080744311936 10.557209293610914, -95.11278387860425 10.108655082055249 C-95.2476474472047 9.869191159587963, -95.38251101580516 9.62972723712068, -95.7261864742735 9.019496659696289 C-95.90226728583451 8.653861086964032, -96.07834809739552 8.288225514231774, -96.26854614880834 7.893275190886686 C-96.43775729634667 7.4753203849920355, -96.606968443885 7.057365579097385, -96.73763422997033 6.73461856121551 C-96.88241249141313 6.298569505033154, -97.02719075285593 5.862520448850798, -97.13152313421489 5.5482879393051325 C-97.25174161348362 5.089842774834986, -97.37196009275233 4.63139761036484, -97.44859428754556 4.339158212148136 C-97.52504988793382 3.9465748630512656, -97.60150548832209 3.5539915139543954, -97.68754477658177 3.112197953150904 C-97.72382427493392 2.830821328128912, -97.76010377328608 2.5494447031069196, -97.84739270250937 1.872449005199809 C-97.877382826733 1.4053286128241065, -97.90737295095664 0.9382082204484037, -97.92748121591342 0.6250057626472781 C-97.92748121591342 0.3399224564416196, -97.92748121591342 0.05483915023596109, -97.92748121591342 -0.6250057626472687 C-97.90158727289263 -1.0283248264106633, -97.87569332987184 -1.4316438901740578, -97.84739270250937 -1.8724490051997822 C-97.78592917133786 -2.3491480156189795, -97.72446564016634 -2.825847026038177, -97.68754477658177 -3.112197953150895 C-97.6154310464674 -3.482486716045896, -97.54331731635305 -3.852775478940897, -97.44859428754556 -4.339158212148126 C-97.33132382791007 -4.786361300076964, -97.21405336827458 -5.233564388005801, -97.13152313421489 -5.548287939305123 C-97.02137225003166 -5.880044852304971, -96.91122136584842 -6.21180176530482, -96.73763422997033 -6.734618561215485 C-96.64166093690844 -6.971674450595755, -96.54568764384653 -7.208730339976025, -96.26854614880834 -7.893275190886676 C-96.08493401094309 -8.274549723834255, -95.90132187307785 -8.655824256781836, -95.7261864742735 -9.019496659696282 C-95.58360926165395 -9.272656938210643, -95.44103204903438 -9.525817216725004, -95.11278387860425 -10.108655082055243 C-94.8840283970744 -10.460084931132801, -94.65527291554457 -10.811514780210358, -94.43085896464063 -11.156274872382308 C-94.13240463713433 -11.556176481492185, -93.83395030962802 -11.95607809060206, -93.68321390812659 -12.158051136245302 C-93.40106948712184 -12.489474027629825, -93.11892506611711 -12.820896919014348, -92.87292094296866 -13.10986736009567 C-92.6753049576849 -13.313922089475275, -92.47768897240115 -13.51797681885488, -92.00330973676799 -14.007812326905677 C-91.63906739269703 -14.338607586466606, -91.27482504862608 -14.669402846027536, -91.0779537085019 -14.848196188198107 C-90.72339665312613 -15.130946004700785, -90.36883959775035 -15.413695821203463, -90.10065534457871 -15.627565626425149 C-89.71835394175677 -15.894242535472742, -89.33605253893484 -16.160919444520335, -89.07543057360571 -16.342718045390885 C-88.75172644466662 -16.53894939065038, -88.4280223157275 -16.73518073590988, -88.00649226407678 -16.99071473040609 C-87.64606365125444 -17.178750106849968, -87.28563503843208 -17.366785483293846, -86.8982329127924 -17.56889292409717 C-86.46314605409033 -17.761492970051474, -86.02805919538828 -17.95409301600578, -85.75520659514781 -18.07487676824742 C-85.30752519789857 -18.23962766075661, -84.85984380064933 -18.404378553265804, -84.58211025146062 -18.506587066708033 C-84.27670418744196 -18.597229983399625, -83.97129812342331 -18.68787290009122, -83.38376438623541 -18.862249829261067 C-83.04813897572812 -18.93885413904887, -82.71251356522083 -19.01545844883668, -82.16509325967677 -19.140403561325773 C-81.68830051151879 -19.21748771526497, -81.2115077633608 -19.294571869204166, -80.93110465284788 -19.3399052695533 C-80.63221877987982 -19.368738430255675, -80.33333290691176 -19.397571590958048, -79.6868692896239 -19.45993515863156 C-79.35889211129711 -19.47045274837165, -79.03091493297032 -19.48097033811174, -78.4375 -19.5 C-78.4375 -19.5, -78.4375 -19.5, -78.4375 -19.5" stroke="none" stroke-width="0" fill="#f8f9fa" style="fill:#f8f9fa !important;stroke:#ced4da !important;stroke-width:2px !important"/><path d="M-78.4375 -19.5 C-42.054698287570766 -19.5, -5.671896575141531 -19.5, 78.4375 -19.5 M-78.4375 -19.5 C-17.095572484647285 -19.5, 44.24635503070543 -19.5, 78.4375 -19.5 M78.4375 -19.5 C78.4375 -19.5, 78.4375 -19.5, 78.4375 -19.5 M78.4375 -19.5 C78.4375 -19.5, 78.4375 -19.5, 78.4375 -19.5 M78.4375 -19.5 C78.77910728976813 -19.489045319115387, 79.12071457953628 -19.47809063823078, 79.6868692896239 -19.45993515863156 M78.4375 -19.5 C78.71361670869334 -19.491145474580776, 78.98973341738667 -19.48229094916155, 79.6868692896239 -19.45993515863156 M79.6868692896239 -19.45993515863156 C80.03606697635637 -19.42624847776414, 80.38526466308883 -19.39256179689672, 80.93110465284786 -19.3399052695533 M79.6868692896239 -19.45993515863156 C79.95123144953314 -19.43443245900713, 80.21559360944237 -19.408929759382698, 80.93110465284786 -19.3399052695533 M80.93110465284786 -19.3399052695533 C81.2886657581997 -19.2820975629678, 81.64622686355153 -19.224289856382303, 82.16509325967675 -19.140403561325776 M80.93110465284786 -19.3399052695533 C81.26850760671314 -19.28535657657135, 81.60591056057842 -19.230807883589396, 82.16509325967675 -19.140403561325776 M82.16509325967675 -19.140403561325776 C82.58641802287868 -19.04423893352596, 83.0077427860806 -18.948074305726145, 83.38376438623538 -18.862249829261074 M82.16509325967675 -19.140403561325776 C82.58247140516363 -19.045139723265333, 82.99984955065051 -18.94987588520489, 83.38376438623538 -18.862249829261074 M83.38376438623538 -18.862249829261074 C83.85076256624012 -18.72364722075914, 84.31776074624484 -18.585044612257207, 84.5821102514606 -18.50658706670804 M83.38376438623538 -18.862249829261074 C83.82556856134421 -18.731124669166217, 84.26737273645303 -18.59999950907136, 84.5821102514606 -18.50658706670804 M84.5821102514606 -18.50658706670804 C84.91523041437951 -18.383995767424853, 85.24835057729841 -18.26140446814167, 85.7552065951478 -18.074876768247425 M84.5821102514606 -18.50658706670804 C84.84371880660038 -18.410312700133627, 85.10532736174017 -18.314038333559214, 85.7552065951478 -18.074876768247425 M85.7552065951478 -18.074876768247425 C85.98451772396936 -17.97336753379107, 86.21382885279091 -17.87185829933472, 86.89823291279238 -17.568892924097174 M85.7552065951478 -18.074876768247425 C86.20723351156111 -17.874777861253303, 86.65926042797444 -17.674678954259182, 86.89823291279238 -17.568892924097174 M86.89823291279238 -17.568892924097174 C87.21775402552628 -17.402198964246942, 87.53727513826017 -17.235505004396714, 88.00649226407678 -16.990714730406097 M86.89823291279238 -17.568892924097174 C87.12405785239399 -17.45108019775479, 87.34988279199561 -17.333267471412405, 88.00649226407678 -16.990714730406097 M88.00649226407678 -16.990714730406097 C88.22567151277406 -16.85784698180558, 88.44485076147132 -16.724979233205058, 89.0754305736057 -16.342718045390892 M88.00649226407678 -16.990714730406097 C88.40550799712037 -16.748829048158353, 88.80452373016395 -16.50694336591061, 89.0754305736057 -16.342718045390892 M89.0754305736057 -16.342718045390892 C89.31539771438003 -16.17532735599682, 89.55536485515435 -16.00793666660275, 90.10065534457871 -15.627565626425154 M89.0754305736057 -16.342718045390892 C89.41966218129036 -16.1025969774162, 89.76389378897501 -15.862475909441509, 90.10065534457871 -15.627565626425154 M90.10065534457871 -15.627565626425154 C90.34075378650732 -15.436093508274963, 90.58085222843593 -15.24462139012477, 91.07795370850187 -14.848196188198123 M90.10065534457871 -15.627565626425154 C90.30272218454634 -15.466422698775414, 90.50478902451395 -15.305279771125676, 91.07795370850187 -14.848196188198123 M91.07795370850187 -14.848196188198123 C91.43771753948911 -14.521468195724864, 91.79748137047635 -14.194740203251605, 92.00330973676799 -14.007812326905688 M91.07795370850187 -14.848196188198123 C91.36154590433435 -14.590645259381395, 91.64513810016682 -14.333094330564666, 92.00330973676799 -14.007812326905688 M92.00330973676799 -14.007812326905688 C92.253548098128 -13.749420673849933, 92.50378645948798 -13.49102902079418, 92.87292094296865 -13.10986736009568 M92.00330973676799 -14.007812326905688 C92.34566488098794 -13.654302532618518, 92.68802002520788 -13.300792738331348, 92.87292094296865 -13.10986736009568 M92.87292094296865 -13.10986736009568 C93.16387618872798 -12.768094772604274, 93.45483143448732 -12.426322185112866, 93.68321390812658 -12.158051136245305 M92.87292094296865 -13.10986736009568 C93.08526707220636 -12.860433513856016, 93.29761320144408 -12.61099966761635, 93.68321390812658 -12.158051136245305 M93.68321390812658 -12.158051136245305 C93.92037680215218 -11.840274464235117, 94.15753969617779 -11.522497792224929, 94.43085896464063 -11.156274872382312 M93.68321390812658 -12.158051136245305 C93.84064530324511 -11.947107409081607, 93.99807669836366 -11.736163681917908, 94.43085896464063 -11.156274872382312 M94.43085896464063 -11.156274872382312 C94.6875090492745 -10.761991422187247, 94.94415913390834 -10.367707971992182, 95.11278387860425 -10.108655082055241 M94.43085896464063 -11.156274872382312 C94.6154414214265 -10.872706651429512, 94.80002387821234 -10.589138430476712, 95.11278387860425 -10.108655082055241 M95.11278387860425 -10.108655082055241 C95.3514073883606 -9.684954877232311, 95.59003089811695 -9.261254672409382, 95.7261864742735 -9.019496659696287 M95.11278387860425 -10.108655082055241 C95.31192974291216 -9.755051434271087, 95.51107560722008 -9.401447786486932, 95.7261864742735 -9.019496659696287 M95.7261864742735 -9.019496659696287 C95.85797447155088 -8.74583606353842, 95.98976246882823 -8.472175467380552, 96.26854614880834 -7.893275190886684 M95.7261864742735 -9.019496659696287 C95.89360359089177 -8.671851434886003, 96.06102070751004 -8.324206210075719, 96.26854614880834 -7.893275190886684 M96.26854614880834 -7.893275190886684 C96.36645276894725 -7.651443946247842, 96.46435938908617 -7.409612701608999, 96.73763422997033 -6.734618561215508 M96.26854614880834 -7.893275190886684 C96.44446474480169 -7.458752857628425, 96.62038334079504 -7.024230524370164, 96.73763422997033 -6.734618561215508 M96.73763422997033 -6.734618561215508 C96.84613148145407 -6.407842126435938, 96.9546287329378 -6.0810656916563675, 97.13152313421489 -5.548287939305138 M96.73763422997033 -6.734618561215508 C96.89387520528503 -6.264045637186425, 97.05011618059973 -5.793472713157341, 97.13152313421489 -5.548287939305138 M97.13152313421489 -5.548287939305138 C97.20354516152095 -5.273636734643024, 97.27556718882701 -4.998985529980911, 97.44859428754556 -4.339158212148133 M97.13152313421489 -5.548287939305138 C97.2297727307595 -5.173619646036009, 97.32802232730413 -4.798951352766881, 97.44859428754556 -4.339158212148133 M97.44859428754556 -4.339158212148133 C97.49994638493477 -4.075476045324178, 97.55129848232397 -3.8117938785002234, 97.68754477658177 -3.1121979531509023 M97.44859428754556 -4.339158212148133 C97.5069529046438 -4.039499047446765, 97.56531152174203 -3.7398398827453967, 97.68754477658177 -3.1121979531509023 M97.68754477658177 -3.1121979531509023 C97.73026534644241 -2.7808656494425477, 97.77298591630304 -2.449533345734193, 97.84739270250937 -1.872449005199798 M97.68754477658177 -3.1121979531509023 C97.7294835156681 -2.7869293745381554, 97.77142225475441 -2.4616607959254084, 97.84739270250937 -1.872449005199798 M97.84739270250937 -1.872449005199798 C97.86465910153582 -1.6035109031762922, 97.88192550056228 -1.3345728011527864, 97.92748121591342 -0.6250057626472757 M97.84739270250937 -1.872449005199798 C97.87847631369097 -1.3882966708069597, 97.90955992487258 -0.9041443364141214, 97.92748121591342 -0.6250057626472757 M97.92748121591342 -0.6250057626472757 C97.92748121591342 -0.18170053985343199, 97.92748121591342 0.2616046829404117, 97.92748121591342 0.625005762647271 M97.92748121591342 -0.6250057626472757 C97.92748121591342 -0.31480844011557063, 97.92748121591342 -0.004611117583865565, 97.92748121591342 0.625005762647271 M97.92748121591342 0.625005762647271 C97.90299666376141 1.0063724259895404, 97.87851211160941 1.3877390893318098, 97.84739270250937 1.8724490051997846 M97.92748121591342 0.625005762647271 C97.90508625269693 0.9738253916329529, 97.88269128948045 1.3226450206186349, 97.84739270250937 1.8724490051997846 M97.84739270250937 1.8724490051997846 C97.79468648980797 2.281227982892889, 97.74198027710658 2.6900069605859933, 97.68754477658177 3.1121979531508885 M97.84739270250937 1.8724490051997846 C97.80518615501417 2.1997946529470296, 97.76297960751897 2.527140300694274, 97.68754477658177 3.1121979531508885 M97.68754477658177 3.1121979531508885 C97.60084494573859 3.5573832605149476, 97.51414511489538 4.002568567879007, 97.44859428754556 4.339158212148129 M97.68754477658177 3.1121979531508885 C97.6226742697221 3.445294295488848, 97.55780376286242 3.7783906378268077, 97.44859428754556 4.339158212148129 M97.44859428754556 4.339158212148129 C97.3481799219498 4.722081708026165, 97.24776555635401 5.1050052039042, 97.13152313421489 5.548287939305125 M97.44859428754556 4.339158212148129 C97.33000822448625 4.79137826611814, 97.21142216142694 5.243598320088151, 97.13152313421489 5.548287939305125 M97.13152313421489 5.548287939305125 C97.01958515733438 5.885427290774643, 96.90764718045385 6.222566642244162, 96.73763422997033 6.734618561215495 M97.13152313421489 5.548287939305125 C97.02908488068773 5.856815637609706, 96.92664662716057 6.165343335914287, 96.73763422997033 6.734618561215495 M96.73763422997033 6.734618561215495 C96.57395925518689 7.138898913370952, 96.41028428040345 7.54317926552641, 96.26854614880834 7.893275190886679 M96.73763422997033 6.734618561215495 C96.63626728080092 6.984996885460577, 96.5349003316315 7.2353752097056585, 96.26854614880834 7.893275190886679 M96.26854614880834 7.893275190886679 C96.060436395202 8.325419547085641, 95.85232664159567 8.757563903284602, 95.7261864742735 9.019496659696284 M96.26854614880834 7.893275190886679 C96.12572211452878 8.189852354012961, 95.98289808024923 8.486429517139245, 95.7261864742735 9.019496659696284 M95.7261864742735 9.019496659696284 C95.5427361888373 9.345231217844015, 95.35928590340109 9.670965775991746, 95.11278387860425 10.108655082055236 M95.7261864742735 9.019496659696284 C95.5755084297169 9.287040785613046, 95.42483038516029 9.554584911529808, 95.11278387860425 10.108655082055236 M95.11278387860425 10.108655082055236 C94.91298209774716 10.41560427174219, 94.71318031689007 10.722553461429143, 94.43085896464065 11.156274872382301 M95.11278387860425 10.108655082055236 C94.88790687466724 10.454126548033155, 94.66302987073023 10.799598014011075, 94.43085896464065 11.156274872382301 M94.43085896464065 11.156274872382301 C94.1585266647086 11.521175344308322, 93.88619436477657 11.886075816234342, 93.68321390812659 12.158051136245302 M94.43085896464065 11.156274872382301 C94.19769229013932 11.468696974293058, 93.96452561563798 11.781119076203815, 93.68321390812659 12.158051136245302 M93.68321390812659 12.158051136245302 C93.46531905125114 12.4140028336998, 93.24742419437568 12.669954531154298, 92.87292094296866 13.10986736009567 M93.68321390812659 12.158051136245302 C93.47829851760825 12.398756413964175, 93.27338312708991 12.63946169168305, 92.87292094296866 13.10986736009567 M92.87292094296866 13.10986736009567 C92.54261463751496 13.450935739128633, 92.21230833206126 13.792004118161595, 92.00330973676799 14.007812326905684 M92.87292094296866 13.10986736009567 C92.5720875184186 13.4205025698271, 92.27125409386854 13.73113777955853, 92.00330973676799 14.007812326905684 M92.00330973676799 14.007812326905684 C91.78031197506752 14.2103329938846, 91.55731421336705 14.412853660863519, 91.0779537085019 14.848196188198111 M92.00330973676799 14.007812326905684 C91.78312976726762 14.207773949563157, 91.56294979776727 14.407735572220627, 91.0779537085019 14.848196188198111 M91.0779537085019 14.848196188198111 C90.70797079247878 15.143247718067665, 90.33798787645564 15.438299247937218, 90.10065534457871 15.627565626425152 M91.0779537085019 14.848196188198111 C90.81722196638438 15.056122814173774, 90.55649022426687 15.264049440149437, 90.10065534457871 15.627565626425152 M90.10065534457871 15.627565626425152 C89.76795148197277 15.859645438460966, 89.43524761936685 16.09172525049678, 89.0754305736057 16.34271804539089 M90.10065534457871 15.627565626425152 C89.72558537814173 15.889198198494428, 89.35051541170475 16.150830770563704, 89.0754305736057 16.34271804539089 M89.0754305736057 16.34271804539089 C88.8078235268577 16.504943009763092, 88.5402164801097 16.667167974135296, 88.00649226407678 16.990714730406093 M89.0754305736057 16.34271804539089 C88.70879321597609 16.56497576618623, 88.34215585834647 16.787233486981574, 88.00649226407678 16.990714730406093 M88.00649226407678 16.990714730406093 C87.66020656409013 17.171371758282554, 87.31392086410347 17.352028786159014, 86.89823291279238 17.56889292409717 M88.00649226407678 16.990714730406093 C87.69763595521984 17.151844868904856, 87.38877964636289 17.312975007403615, 86.89823291279238 17.56889292409717 M86.89823291279238 17.56889292409717 C86.50322913753183 17.743749378034344, 86.10822536227127 17.918605831971515, 85.7552065951478 18.07487676824742 M86.89823291279238 17.56889292409717 C86.57104307765223 17.7137301583721, 86.24385324251207 17.858567392647036, 85.7552065951478 18.07487676824742 M85.7552065951478 18.07487676824742 C85.4576944762325 18.18436397818013, 85.1601823573172 18.293851188112843, 84.58211025146062 18.506587066708033 M85.7552065951478 18.07487676824742 C85.36120335097822 18.219873604227892, 84.96720010680862 18.364870440208367, 84.58211025146062 18.506587066708033 M84.58211025146062 18.506587066708033 C84.14892813665331 18.635153244563526, 83.71574602184599 18.763719422419015, 83.38376438623541 18.86224982926107 M84.58211025146062 18.506587066708033 C84.2165687715736 18.615077859172114, 83.8510272916866 18.723568651636196, 83.38376438623541 18.86224982926107 M83.38376438623541 18.86224982926107 C82.90320260156496 18.971934920653386, 82.4226408168945 19.0816200120457, 82.16509325967677 19.140403561325773 M83.38376438623541 18.86224982926107 C83.07434708603832 18.932872308894478, 82.76492978584122 19.00349478852788, 82.16509325967677 19.140403561325773 M82.16509325967677 19.140403561325773 C81.90749566256116 19.182049943128224, 81.64989806544557 19.22369632493067, 80.93110465284788 19.3399052695533 M82.16509325967677 19.140403561325773 C81.83680175128856 19.193479186463307, 81.50851024290036 19.24655481160084, 80.93110465284788 19.3399052695533 M80.93110465284788 19.3399052695533 C80.52702560574768 19.3788862892509, 80.12294655864748 19.4178673089485, 79.6868692896239 19.45993515863156 M80.93110465284788 19.3399052695533 C80.6041165890026 19.37144941481177, 80.27712852515732 19.402993560070243, 79.6868692896239 19.45993515863156 M79.6868692896239 19.45993515863156 C79.34706495841488 19.470832022144425, 79.00726062720587 19.48172888565729, 78.4375 19.5 M79.6868692896239 19.45993515863156 C79.26825760771625 19.473359220492128, 78.84964592580859 19.486783282352697, 78.4375 19.5 M78.4375 19.5 C78.4375 19.5, 78.4375 19.5, 78.4375 19.5 M78.4375 19.5 C78.4375 19.5, 78.4375 19.5, 78.4375 19.5 M78.4375 19.5 C29.039736505871346 19.5, -20.358026988257308 19.5, -78.4375 19.5 M78.4375 19.5 C19.508278595449752 19.5, -39.420942809100495 19.5, -78.4375 19.5 M-78.4375 19.5 C-78.92809072299272 19.484267710390537, -79.41868144598544 19.468535420781073, -79.6868692896239 19.45993515863156 M-78.4375 19.5 C-78.9285810777646 19.48425198566742, -79.4196621555292 19.46850397133484, -79.6868692896239 19.45993515863156 M-79.6868692896239 19.45993515863156 C-80.10270817281136 19.41981968168989, -80.51854705599881 19.379704204748226, -80.93110465284786 19.3399052695533 M-79.6868692896239 19.45993515863156 C-80.01720921189394 19.42806766362205, -80.34754913416398 19.39620016861254, -80.93110465284786 19.3399052695533 M-80.93110465284786 19.3399052695533 C-81.19058146033863 19.297955071590884, -81.4500582678294 19.256004873628473, -82.16509325967675 19.140403561325773 M-80.93110465284786 19.3399052695533 C-81.40288205558196 19.26363195776765, -81.87465945831606 19.187358645982002, -82.16509325967675 19.140403561325773 M-82.16509325967675 19.140403561325773 C-82.5992732835479 19.041304804166625, -83.03345330741905 18.942206047007474, -83.38376438623538 18.862249829261074 M-82.16509325967675 19.140403561325773 C-82.4637839579753 19.07222935857809, -82.76247465627384 19.004055155830414, -83.38376438623538 18.862249829261074 M-83.38376438623538 18.862249829261074 C-83.80157727555373 18.738245156856, -84.21939016487207 18.614240484450928, -84.58211025146059 18.506587066708043 M-83.38376438623538 18.862249829261074 C-83.7607834431993 18.750352552167598, -84.13780250016322 18.638455275074126, -84.58211025146059 18.506587066708043 M-84.58211025146059 18.506587066708043 C-84.82407765866141 18.41754082413595, -85.06604506586223 18.328494581563856, -85.7552065951478 18.074876768247425 M-84.58211025146059 18.506587066708043 C-85.03870044382667 18.338557655243854, -85.49529063619275 18.170528243779668, -85.7552065951478 18.074876768247425 M-85.7552065951478 18.074876768247425 C-86.12763828348982 17.91001230761192, -86.50006997183182 17.745147846976415, -86.89823291279238 17.568892924097174 M-85.7552065951478 18.074876768247425 C-86.13801100837914 17.905420609999364, -86.5208154216105 17.735964451751304, -86.89823291279238 17.568892924097174 M-86.89823291279238 17.568892924097174 C-87.24255459630717 17.38926052235607, -87.58687627982196 17.20962812061497, -88.00649226407678 16.990714730406097 M-86.89823291279238 17.568892924097174 C-87.25606404895868 17.382212649560998, -87.61389518512497 17.195532375024822, -88.00649226407678 16.990714730406097 M-88.00649226407678 16.990714730406097 C-88.42828218015353 16.73502320456769, -88.85007209623029 16.47933167872928, -89.07543057360569 16.3427180453909 M-88.00649226407678 16.990714730406097 C-88.2508969265499 16.84255518773367, -88.49530158902303 16.694395645061242, -89.07543057360569 16.3427180453909 M-89.07543057360569 16.3427180453909 C-89.36977877346793 16.13739348329521, -89.66412697333016 15.93206892119952, -90.10065534457871 15.627565626425156 M-89.07543057360569 16.3427180453909 C-89.28572128254149 16.196028350175354, -89.4960119914773 16.049338654959804, -90.10065534457871 15.627565626425156 M-90.10065534457871 15.627565626425156 C-90.42645711854875 15.367747381633372, -90.75225889251878 15.107929136841587, -91.07795370850187 14.848196188198125 M-90.10065534457871 15.627565626425156 C-90.43305430812451 15.362486298505283, -90.76545327167032 15.09740697058541, -91.07795370850187 14.848196188198125 M-91.07795370850187 14.848196188198125 C-91.2946159423878 14.651429279951495, -91.51127817627373 14.454662371704863, -92.00330973676797 14.007812326905697 M-91.07795370850187 14.848196188198125 C-91.3922213166977 14.562786661499928, -91.70648892489353 14.27737713480173, -92.00330973676797 14.007812326905697 M-92.00330973676797 14.007812326905697 C-92.19994004514471 13.804775389858158, -92.39657035352147 13.601738452810618, -92.87292094296865 13.109867360095677 M-92.00330973676797 14.007812326905697 C-92.19050053878163 13.814522455175926, -92.3776913407953 13.621232583446153, -92.87292094296865 13.109867360095677 M-92.87292094296865 13.109867360095677 C-93.19671905101428 12.729515677750978, -93.52051715905992 12.349163995406277, -93.68321390812658 12.158051136245307 M-92.87292094296865 13.109867360095677 C-93.12046331447227 12.819090004967553, -93.3680056859759 12.52831264983943, -93.68321390812658 12.158051136245307 M-93.68321390812658 12.158051136245307 C-93.90786348123851 11.857041174272457, -94.13251305435044 11.556031212299606, -94.43085896464063 11.156274872382316 M-93.68321390812658 12.158051136245307 C-93.85268238744044 11.930978812860808, -94.0221508667543 11.703906489476307, -94.43085896464063 11.156274872382316 M-94.43085896464063 11.156274872382316 C-94.59363709100954 10.906203958232483, -94.75641521737845 10.656133044082651, -95.11278387860425 10.108655082055249 M-94.43085896464063 11.156274872382316 C-94.6651326789793 10.796367535857415, -94.89940639331796 10.436460199332517, -95.11278387860425 10.108655082055249 M-95.11278387860425 10.108655082055249 C-95.24283770616529 9.877731341842543, -95.37289153372633 9.646807601629837, -95.7261864742735 9.019496659696289 M-95.11278387860425 10.108655082055249 C-95.29714006122991 9.781312011715585, -95.48149624385559 9.453968941375921, -95.7261864742735 9.019496659696289 M-95.7261864742735 9.019496659696289 C-95.87906036035484 8.702050764271236, -96.03193424643617 8.384604868846184, -96.26854614880834 7.893275190886686 M-95.7261864742735 9.019496659696289 C-95.92329689097939 8.610192661919232, -96.12040730768527 8.200888664142175, -96.26854614880834 7.893275190886686 M-96.26854614880834 7.893275190886686 C-96.4473171544536 7.451707350640627, -96.62608816009886 7.010139510394567, -96.73763422997033 6.73461856121551 M-96.26854614880834 7.893275190886686 C-96.41780025827096 7.524614654882134, -96.56705436773356 7.155954118877581, -96.73763422997033 6.73461856121551 M-96.73763422997033 6.73461856121551 C-96.88302329225856 6.296729870204627, -97.02841235454679 5.858841179193744, -97.13152313421489 5.5482879393051325 M-96.73763422997033 6.73461856121551 C-96.83707965575475 6.435104783229688, -96.93652508153919 6.135591005243867, -97.13152313421489 5.5482879393051325 M-97.13152313421489 5.5482879393051325 C-97.23529379878298 5.1525654208164955, -97.33906446335106 4.7568429023278584, -97.44859428754556 4.339158212148136 M-97.13152313421489 5.5482879393051325 C-97.25686840877275 5.070292082430386, -97.3822136833306 4.592296225555641, -97.44859428754556 4.339158212148136 M-97.44859428754556 4.339158212148136 C-97.49854871434016 4.082652788429706, -97.54850314113476 3.8261473647112756, -97.68754477658177 3.112197953150904 M-97.44859428754556 4.339158212148136 C-97.51084939315172 4.019491402481719, -97.57310449875789 3.699824592815302, -97.68754477658177 3.112197953150904 M-97.68754477658177 3.112197953150904 C-97.74737165047625 2.6481925333778635, -97.80719852437073 2.184187113604823, -97.84739270250937 1.872449005199809 M-97.68754477658177 3.112197953150904 C-97.73915610137698 2.7119107098481705, -97.79076742617218 2.311623466545437, -97.84739270250937 1.872449005199809 M-97.84739270250937 1.872449005199809 C-97.87492456874156 1.4436179653110401, -97.90245643497374 1.0147869254222712, -97.92748121591342 0.6250057626472781 M-97.84739270250937 1.872449005199809 C-97.86688592390377 1.5688263473369957, -97.88637914529816 1.2652036894741823, -97.92748121591342 0.6250057626472781 M-97.92748121591342 0.6250057626472781 C-97.92748121591342 0.23864323645686747, -97.92748121591342 -0.1477192897335432, -97.92748121591342 -0.6250057626472687 M-97.92748121591342 0.6250057626472781 C-97.92748121591342 0.22612354893939585, -97.92748121591342 -0.17275866476848645, -97.92748121591342 -0.6250057626472687 M-97.92748121591342 -0.6250057626472687 C-97.91139937613687 -0.8754933981943981, -97.89531753636032 -1.1259810337415275, -97.84739270250937 -1.8724490051997822 M-97.92748121591342 -0.6250057626472687 C-97.90354426360949 -0.9978431163410328, -97.87960731130556 -1.370680470034797, -97.84739270250937 -1.8724490051997822 M-97.84739270250937 -1.8724490051997822 C-97.81056771854684 -2.158056308897542, -97.77374273458432 -2.4436636125953015, -97.68754477658177 -3.112197953150895 M-97.84739270250937 -1.8724490051997822 C-97.81380547798848 -2.1329448860360936, -97.7802182534676 -2.393440766872405, -97.68754477658177 -3.112197953150895 M-97.68754477658177 -3.112197953150895 C-97.59904991859797 -3.5666003455028914, -97.51055506061417 -4.021002737854888, -97.44859428754556 -4.339158212148126 M-97.68754477658177 -3.112197953150895 C-97.60173614362553 -3.55280714772022, -97.51592751066929 -3.993416342289545, -97.44859428754556 -4.339158212148126 M-97.44859428754556 -4.339158212148126 C-97.36228156948675 -4.668306014275006, -97.27596885142795 -4.997453816401887, -97.13152313421489 -5.548287939305123 M-97.44859428754556 -4.339158212148126 C-97.34281039190928 -4.742558053239634, -97.237026496273 -5.145957894331142, -97.13152313421489 -5.548287939305123 M-97.13152313421489 -5.548287939305123 C-97.03399482976322 -5.842027653288495, -96.93646652531153 -6.135767367271867, -96.73763422997033 -6.734618561215485 M-97.13152313421489 -5.548287939305123 C-96.98317968925234 -5.995074760214101, -96.83483624428979 -6.441861581123079, -96.73763422997033 -6.734618561215485 M-96.73763422997033 -6.734618561215485 C-96.56910339194894 -7.150892989450385, -96.40057255392757 -7.567167417685286, -96.26854614880834 -7.893275190886676 M-96.73763422997033 -6.734618561215485 C-96.64307496197158 -6.968181781351466, -96.54851569397283 -7.201745001487446, -96.26854614880834 -7.893275190886676 M-96.26854614880834 -7.893275190886676 C-96.05313376749996 -8.340583609760142, -95.83772138619157 -8.787892028633607, -95.7261864742735 -9.019496659696282 M-96.26854614880834 -7.893275190886676 C-96.07882800526423 -8.287228975274024, -95.8891098617201 -8.681182759661374, -95.7261864742735 -9.019496659696282 M-95.7261864742735 -9.019496659696282 C-95.52602870818654 -9.3748970415553, -95.32587094209958 -9.73029742341432, -95.11278387860425 -10.108655082055243 M-95.7261864742735 -9.019496659696282 C-95.59587796220589 -9.250872618040018, -95.46556945013828 -9.482248576383757, -95.11278387860425 -10.108655082055243 M-95.11278387860425 -10.108655082055243 C-94.89666977513029 -10.44066437975366, -94.68055567165632 -10.772673677452076, -94.43085896464063 -11.156274872382308 M-95.11278387860425 -10.108655082055243 C-94.93567521953992 -10.380741542712096, -94.75856656047557 -10.652828003368949, -94.43085896464063 -11.156274872382308 M-94.43085896464063 -11.156274872382308 C-94.14866302424635 -11.53439172393161, -93.86646708385207 -11.91250857548091, -93.68321390812659 -12.158051136245302 M-94.43085896464063 -11.156274872382308 C-94.14656954429121 -11.537196796351541, -93.8622801239418 -11.918118720320772, -93.68321390812659 -12.158051136245302 M-93.68321390812659 -12.158051136245302 C-93.39456131278298 -12.497118899533868, -93.10590871743938 -12.836186662822433, -92.87292094296866 -13.10986736009567 M-93.68321390812659 -12.158051136245302 C-93.38197854567449 -12.511899333759244, -93.08074318322238 -12.865747531273186, -92.87292094296866 -13.10986736009567 M-92.87292094296866 -13.10986736009567 C-92.6502530971468 -13.339790192276867, -92.42758525132494 -13.569713024458064, -92.00330973676799 -14.007812326905677 M-92.87292094296866 -13.10986736009567 C-92.65251225982324 -13.337457421332745, -92.4321035766778 -13.565047482569822, -92.00330973676799 -14.007812326905677 M-92.00330973676799 -14.007812326905677 C-91.7649433663814 -14.224290357662225, -91.5265769959948 -14.440768388418771, -91.0779537085019 -14.848196188198107 M-92.00330973676799 -14.007812326905677 C-91.66892496309855 -14.311491731015979, -91.3345401894291 -14.61517113512628, -91.0779537085019 -14.848196188198107 M-91.0779537085019 -14.848196188198107 C-90.79656358876467 -15.072597320582975, -90.51517346902745 -15.296998452967845, -90.10065534457871 -15.627565626425149 M-91.0779537085019 -14.848196188198107 C-90.70372848905917 -15.146630842152351, -90.32950326961645 -15.445065496106597, -90.10065534457871 -15.627565626425149 M-90.10065534457871 -15.627565626425149 C-89.77935261771147 -15.85169249971687, -89.45804989084422 -16.075819373008592, -89.07543057360571 -16.342718045390885 M-90.10065534457871 -15.627565626425149 C-89.79716950009578 -15.839264213845984, -89.49368365561283 -16.05096280126682, -89.07543057360571 -16.342718045390885 M-89.07543057360571 -16.342718045390885 C-88.79723658937637 -16.511360873480033, -88.51904260514702 -16.680003701569177, -88.00649226407678 -16.99071473040609 M-89.07543057360571 -16.342718045390885 C-88.69091178288834 -16.575815596006994, -88.30639299217096 -16.8089131466231, -88.00649226407678 -16.99071473040609 M-88.00649226407678 -16.99071473040609 C-87.59529021882302 -17.205238574027497, -87.18408817356926 -17.419762417648904, -86.8982329127924 -17.56889292409717 M-88.00649226407678 -16.99071473040609 C-87.705570023025 -17.147705670812915, -87.40464778197321 -17.304696611219736, -86.8982329127924 -17.56889292409717 M-86.8982329127924 -17.56889292409717 C-86.6411875468327 -17.682679282627664, -86.384142180873 -17.796465641158157, -85.75520659514781 -18.07487676824742 M-86.8982329127924 -17.56889292409717 C-86.56513206698013 -17.716346787452746, -86.23203122116786 -17.863800650808322, -85.75520659514781 -18.07487676824742 M-85.75520659514781 -18.07487676824742 C-85.45735201738673 -18.18449000620103, -85.15949743962565 -18.294103244154645, -84.58211025146062 -18.506587066708033 M-85.75520659514781 -18.07487676824742 C-85.36334021520868 -18.21908721843813, -84.97147383526955 -18.363297668628835, -84.58211025146062 -18.506587066708033 M-84.58211025146062 -18.506587066708033 C-84.17897488222762 -18.626235528195654, -83.77583951299462 -18.74588398968327, -83.38376438623541 -18.862249829261067 M-84.58211025146062 -18.506587066708033 C-84.1103655450007 -18.64659841934684, -83.6386208385408 -18.786609771985646, -83.38376438623541 -18.862249829261067 M-83.38376438623541 -18.862249829261067 C-83.07416925398827 -18.932912897899435, -82.76457412174113 -19.0035759665378, -82.16509325967677 -19.140403561325773 M-83.38376438623541 -18.862249829261067 C-83.07586894112237 -18.93252495540257, -82.76797349600933 -19.002800081544073, -82.16509325967677 -19.140403561325773 M-82.16509325967677 -19.140403561325773 C-81.91785845335811 -19.180374567476814, -81.67062364703945 -19.220345573627856, -80.93110465284788 -19.3399052695533 M-82.16509325967677 -19.140403561325773 C-81.69584400583528 -19.21626814160455, -81.2265947519938 -19.29213272188333, -80.93110465284788 -19.3399052695533 M-80.93110465284788 -19.3399052695533 C-80.51382112463153 -19.380160109663464, -80.09653759641517 -19.420414949773626, -79.6868692896239 -19.45993515863156 M-80.93110465284788 -19.3399052695533 C-80.46488904591463 -19.384880528447848, -79.99867343898138 -19.429855787342397, -79.6868692896239 -19.45993515863156 M-79.6868692896239 -19.45993515863156 C-79.19799992104895 -19.475612247755258, -78.709130552474 -19.491289336878957, -78.4375 -19.5 M-79.6868692896239 -19.45993515863156 C-79.33254775754635 -19.471297560520263, -78.9782262254688 -19.482659962408967, -78.4375 -19.5 M-78.4375 -19.5 C-78.4375 -19.5, -78.4375 -19.5, -78.4375 -19.5 M-78.4375 -19.5 C-78.4375 -19.5, -78.4375 -19.5, -78.4375 -19.5" stroke="#ced4da" stroke-width="2" fill="none" stroke-dasharray="0 0" style="fill:#f8f9fa !important;stroke:#ced4da !important;stroke-width:2px !important"/></g><g class="label" style="" transform="translate(-85.5625, -12)"><rect/><foreignObject width="171.125" height="24"><div xmlns="http://www.w3.org/1999/xhtml" style="display: table-cell; white-space: nowrap; line-height: 1.5; max-width: 200px; text-align: center;"><span class="nodeLabel"><p>External &amp; LAN Users</p></span></div></foreignObject></g></g><g class="node default ingress" id="flowchart-Edge-1" transform="translate(526.5737152099609, 182)"><polygon points="139,0 278,-139 139,-278 0,-139" class="label-container" transform="translate(-138.5, 139)" style="fill:#d1e7dd !important;stroke:#0f5132 !important;stroke-width:2px !important"/><g class="label" style="" transform="translate(-100, -24)"><rect/><foreignObject width="200" height="48"><div xmlns="http://www.w3.org/1999/xhtml" style="display: table; white-space: break-spaces; line-height: 1.5; max-width: 200px; text-align: center; width: 200px;"><span class="nodeLabel"><p>Edge &amp; Routing\nCaddy / VPN / DNS</p></span></div></foreignObject></g></g><g class="node default compute" id="flowchart-Apps-2" transform="translate(914.4018402099609, 106)"><rect class="basic label-container" style="fill:#cfe2ff !important;stroke:#084298 !important;stroke-width:2px !important" x="-130" y="-63" width="260" height="126"/><g class="label" style="" transform="translate(-100, -48)"><rect/><foreignObject width="200" height="96"><div xmlns="http://www.w3.org/1999/xhtml" style="display: table; white-space: break-spaces; line-height: 1.5; max-width: 200px; text-align: center; width: 200px;"><span class="nodeLabel"><p>Docker Service Mesh:\n*arr suite, personal Telegram bot, PiHole, private LLM</p></span></div></foreignObject></g></g><g class="node default compute" id="flowchart-Players-3" transform="translate(914.4018402099609, 258)"><rect class="basic label-container" style="fill:#cfe2ff !important;stroke:#084298 !important;stroke-width:2px !important" x="-130" y="-39" width="260" height="78"/><g class="label" style="" transform="translate(-100, -24)"><rect/><foreignObject width="200" height="48"><div xmlns="http://www.w3.org/1999/xhtml" style="display: table; white-space: break-spaces; line-height: 1.5; max-width: 200px; text-align: center; width: 200px;"><span class="nodeLabel"><p>Host Services: Plex / Jellyfin</p></span></div></foreignObject></g></g><g class="node default storage" id="flowchart-Disks-4" transform="translate(1314.745590209961, 182)"><path d="M0,15.808823529411764 a107.5,15.808823529411764 0,0,0 215,0 a107.5,15.808823529411764 0,0,0 -215,0 l0,102.80882352941177 a107.5,15.808823529411764 0,0,0 215,0 l0,-102.80882352941177" class="basic label-container" style="fill:#fff3cd !important;stroke:#856404 !important;stroke-width:2px !important" transform="translate(-107.5, -67.21323529411765)"/><g class="label" style="" transform="translate(-100, -26)"><rect/><foreignObject width="200" height="72"><div xmlns="http://www.w3.org/1999/xhtml" style="display: table; white-space: break-spaces; line-height: 1.5; max-width: 200px; text-align: center; width: 200px;"><span class="nodeLabel"><p>Persistent Storage\nNVMe State &amp; HDD Media</p></span></div></foreignObject></g></g></g></g></g><style>#container &gt; svg { max-width: 100% !important; }
</style></svg>